<?xml version="1.0" encoding="iso-8859-1"?>
<!-- Generator: Adobe Illustrator 19.0.0, SVG Export Plug-In . SVG Version: 6.00 Build 0)  -->
<svg version="1.1" id="Layer_1" xmlns="http://www.w3.org/2000/svg" xmlns:xlink="http://www.w3.org/1999/xlink" x="0px" y="0px"
	 viewBox="0 0 512 512" style="enable-background:new 0 0 512 512;" xml:space="preserve">
<path d="M140.409,72.641H17.067C7.641,72.641,0,80.283,0,89.708v65.883c0,9.425,7.641,17.067,17.067,17.067h2.606
	c0,10.266,0,249.616,0,259.901c0,32.573,26.495,59.073,59.062,59.073c32.573,0,59.073-26.5,59.073-59.073
	c0-10.284,0-249.635,0-259.901h2.601c9.425,0,17.067-7.641,17.067-17.067V89.708C157.475,80.283,149.834,72.641,140.409,72.641z
	 M103.674,258.331H53.806v-85.674h49.869V258.331z"/>
<path d="M494.933,20.367H202.768c-9.425,0-17.067,7.641-17.067,17.067v437.129c0,9.425,7.641,17.067,17.067,17.067h292.165
	c9.425,0,17.067-7.641,17.067-17.067V37.434C512,28.009,504.359,20.367,494.933,20.367z M454.538,405.169
	c0,9.425-7.641,17.067-17.067,17.067H260.23c-9.425,0-17.067-7.641-17.067-17.067v-45.885c0-9.425,7.641-17.067,17.067-17.067
	h177.241c9.425,0,17.067,7.641,17.067,17.067V405.169z M454.538,278.942c0,9.425-7.641,17.067-17.067,17.067H260.23
	c-9.425,0-17.067-7.641-17.067-17.067v-45.885c0-9.425,7.641-17.067,17.067-17.067h177.241c9.425,0,17.067,7.641,17.067,17.067
	V278.942z M454.538,152.713c0,9.425-7.641,17.067-17.067,17.067H260.23c-9.425,0-17.067-7.641-17.067-17.067v-45.885
	c0-9.425,7.641-17.067,17.067-17.067h177.241c9.425,0,17.067,7.641,17.067,17.067V152.713z"/>
<g>
</g>
<g>
</g>
<g>
</g>
<g>
</g>
<g>
</g>
<g>
</g>
<g>
</g>
<g>
</g>
<g>
</g>
<g>
</g>
<g>
</g>
<g>
</g>
<g>
</g>
<g>
</g>
<g>
</g>
</svg>
