<?xml version="1.0" encoding="utf-8"?>
<!-- Generator: Adobe Illustrator 25.4.1, SVG Export Plug-In . SVG Version: 6.00 Build 0)  -->
<svg version="1.1" id="Layer_1" xmlns="http://www.w3.org/2000/svg" xmlns:xlink="http://www.w3.org/1999/xlink" x="0px" y="0px"
	 viewBox="0 0 63.875 50" style="enable-background:new 0 0 63.875 50;" xml:space="preserve">
<style type="text/css">
	.st0{clip-path:url(#SVGID_00000151523291549088004730000007573600012347908779_);}
	.st1{fill:none;stroke:#000000;stroke-width:2.5;stroke-linecap:round;stroke-linejoin:round;stroke-miterlimit:10;}
	.st2{stroke:#FFFFFF;stroke-width:2;stroke-miterlimit:10;}
	.st3{stroke:#FFFFFF;stroke-width:2.1517;stroke-miterlimit:10;}
</style>
<path d="M13.488,43.353H8.931c-0.397,0-0.72-0.322-0.72-0.72V14.263c0-0.397,0.322-0.72,0.72-0.72h4.557
	c0.397,0,0.72,0.322,0.72,0.72v28.371C14.208,43.031,13.885,43.353,13.488,43.353z"/>
<path d="M3.399,50H0.913c-0.397,0-0.72-0.322-0.72-0.72V5.551c0-0.397,0.322-0.72,0.72-0.72h2.486c0.397,0,0.72,0.322,0.72,0.72
	v43.73C4.119,49.678,3.797,50,3.399,50z"/>
<path d="M46.761,46.796v2.484c0,0.397-0.322,0.72-0.72,0.72H1.068c-0.397,0-0.72-0.322-0.72-0.72v-2.484
	c0-0.397,0.322-0.72,0.72-0.72h44.973C46.439,46.077,46.761,46.399,46.761,46.796z"/>
<path d="M22.847,43.406H18.29c-0.397,0-0.72-0.322-0.72-0.72V25.438c0-0.397,0.322-0.72,0.72-0.72h4.557
	c0.397,0,0.72,0.322,0.72,0.72v17.248C23.566,43.083,23.244,43.406,22.847,43.406z"/>
<path d="M32.205,43.406h-4.557c-0.397,0-0.72-0.322-0.72-0.72V15.284c0-0.397,0.322-0.72,0.72-0.72h4.557
	c0.397,0,0.72,0.322,0.72,0.72v27.402C32.925,43.083,32.603,43.406,32.205,43.406z"/>
<path d="M41.564,43.406h-4.557c-0.397,0-0.72-0.322-0.72-0.72v-20.27c0-0.397,0.322-0.72,0.72-0.72h4.557
	c0.397,0,0.72,0.322,0.72,0.72v20.27C42.284,43.083,41.961,43.406,41.564,43.406z"/>
<g>
	<path class="st2" d="M46.219,36.592c-0.837,0.5-1.703,0.634-2.605,0.31c-0.323-0.116-0.623-0.311-0.909-0.505
		c-0.148-0.1-0.246-0.131-0.413-0.049c-1.487,0.729-3.046,1.254-4.675,1.55c-4.215,0.767-8.26,0.241-12.08-1.717
		c-4.263-2.185-7.286-5.531-9.037-9.988c-1.342-3.418-1.636-6.951-0.896-10.553c0.946-4.603,3.301-8.348,7.01-11.217
		c3.065-2.37,6.559-3.668,10.431-3.854c5.404-0.259,10.107,1.473,14.041,5.186c3.016,2.847,4.873,6.351,5.57,10.441
		c0.677,3.97,0.127,7.784-1.619,11.419c-0.065,0.135-0.062,0.218,0.038,0.337c0.811,0.962,0.936,2.276,0.321,3.377
		c-0.082,0.147-0.068,0.221,0.061,0.331c3.702,3.177,7.4,6.358,11.099,9.539c0.038,0.033,0.071,0.072,0.112,0.099
		c0.78,0.513,0.857,1.263,0.685,2.083c-0.245,1.163-0.846,2.141-1.626,3.016c-0.632,0.709-1.365,1.295-2.215,1.725
		c-0.097,0.049-0.216,0.08-0.324,0.081c-0.934,0.006-1.869,0.007-2.803-0.002c-0.091-0.001-0.208-0.056-0.267-0.125
		c-2.079-2.407-4.152-4.82-6.227-7.231c-1.172-1.362-2.345-2.725-3.517-4.087C46.327,36.707,46.277,36.656,46.219,36.592z
		 M50.356,19.384c0.006-8.969-7.268-16.25-16.252-16.268c-9.006-0.018-16.291,7.255-16.303,16.278
		c-0.012,8.964,7.29,16.258,16.281,16.265C43.053,35.664,50.35,28.367,50.356,19.384z"/>
	<path d="M46.219,36.592c-0.837,0.5-1.703,0.634-2.605,0.31c-0.323-0.116-0.623-0.311-0.909-0.505
		c-0.148-0.1-0.246-0.131-0.413-0.049c-1.487,0.729-3.046,1.254-4.675,1.55c-4.215,0.767-8.26,0.241-12.08-1.717
		c-4.263-2.185-7.286-5.531-9.037-9.988c-1.342-3.418-1.636-6.951-0.896-10.553c0.946-4.603,3.301-8.348,7.01-11.217
		c3.065-2.37,6.559-3.668,10.431-3.854c5.404-0.259,10.107,1.473,14.041,5.186c3.016,2.847,4.873,6.351,5.57,10.441
		c0.677,3.97,0.127,7.784-1.619,11.419c-0.065,0.135-0.062,0.218,0.038,0.337c0.811,0.962,0.936,2.276,0.321,3.377
		c-0.082,0.147-0.068,0.221,0.061,0.331c3.702,3.177,7.4,6.358,11.099,9.539c0.038,0.033,0.071,0.072,0.112,0.099
		c0.78,0.513,0.857,1.263,0.685,2.083c-0.245,1.163-0.846,2.141-1.626,3.016c-0.632,0.709-1.365,1.295-2.215,1.725
		c-0.097,0.049-0.216,0.08-0.324,0.081c-0.934,0.006-1.869,0.007-2.803-0.002c-0.091-0.001-0.208-0.056-0.267-0.125
		c-2.079-2.407-4.152-4.82-6.227-7.231c-1.172-1.362-2.345-2.725-3.517-4.087C46.327,36.707,46.277,36.656,46.219,36.592z
		 M50.356,19.384c0.006-8.969-7.268-16.25-16.252-16.268c-9.006-0.018-16.291,7.255-16.303,16.278
		c-0.012,8.964,7.29,16.258,16.281,16.265C43.053,35.664,50.35,28.367,50.356,19.384z"/>
</g>
</svg>
