<?xml version="1.0" encoding="utf-8"?>
<!-- Generator: Adobe Illustrator 25.4.1, SVG Export Plug-In . SVG Version: 6.00 Build 0)  -->
<svg version="1.1" id="Layer_1" xmlns="http://www.w3.org/2000/svg" xmlns:xlink="http://www.w3.org/1999/xlink" x="0px" y="0px"
	 viewBox="0 0 24 24" style="enable-background:new 0 0 24 24;" xml:space="preserve">
<g>
	<path d="M14.813,5.759c0,1.181,0,2.362,0,3.543c0,0.193,0,0.193,0.198,0.193c1.19,0,2.379-0.001,3.569,0.001
		c0.498,0.001,0.848,0.279,0.924,0.747c0.05,0.302-0.051,0.561-0.268,0.778c-0.507,0.506-1.013,1.013-1.519,1.52
		c-1.679,1.68-3.359,3.358-5.037,5.039c-0.265,0.265-0.571,0.398-0.937,0.269c-0.147-0.052-0.289-0.152-0.4-0.263
		c-1.642-1.632-3.279-3.27-4.916-4.906c-0.552-0.552-1.105-1.102-1.655-1.656C4.374,10.621,4.388,10.069,4.799,9.7
		c0.187-0.168,0.417-0.205,0.655-0.205c1.177-0.001,2.354-0.001,3.531-0.001c0.208,0,0.209,0,0.209-0.21
		c0-2.336,0.001-3.772,0.001-6.109c0-0.341,0.075-0.651,0.338-0.892c0.19-0.174,0.411-0.279,0.669-0.28
		c1.198-0.003,2.397-0.008,3.595,0.001c0.593,0.005,1.016,0.488,1.017,1.136c0.003,1.172,0.001,1.445,0.001,2.617
		C14.814,5.759,14.814,5.759,14.813,5.759z"/>
	<path d="M19.867,22H4.133c-0.708,0-1.282-0.574-1.282-1.282s0.574-1.282,1.282-1.282h15.733c0.708,0,1.282,0.574,1.282,1.282
		S20.575,22,19.867,22z"/>
</g>
</svg>
