<?xml version="1.0" encoding="utf-8"?>
<!-- Generator: Adobe Illustrator 25.4.1, SVG Export Plug-In . SVG Version: 6.00 Build 0)  -->
<svg version="1.1" id="Layer_1" xmlns="http://www.w3.org/2000/svg" xmlns:xlink="http://www.w3.org/1999/xlink" x="0px" y="0px"
	 viewBox="0 0 25 25" style="enable-background:new 0 0 25 25;" xml:space="preserve">
<path d="M15.801,5.015c0,1.386,0,2.771,0,4.157c0,0.227,0,0.227,0.233,0.227c1.396,0,2.792-0.001,4.188,0.001
	c0.584,0.001,0.994,0.327,1.085,0.876c0.058,0.354-0.06,0.658-0.315,0.912c-0.595,0.593-1.188,1.189-1.783,1.783
	c-1.97,1.97-3.941,3.94-5.91,5.912c-0.311,0.311-0.67,0.467-1.099,0.315c-0.172-0.061-0.339-0.178-0.47-0.309
	c-1.927-1.915-3.847-3.836-5.768-5.756C5.314,12.486,4.665,11.84,4.02,11.19c-0.467-0.471-0.451-1.119,0.032-1.551
	c0.22-0.197,0.489-0.241,0.769-0.241c1.381-0.001,2.762-0.001,4.143-0.001c0.244,0,0.245,0,0.245-0.246
	C9.209,6.41,9.209,4.725,9.209,1.984c0-0.4,0.088-0.763,0.396-1.047c0.223-0.205,0.482-0.327,0.785-0.328
	c1.406-0.004,2.812-0.01,4.218,0.002c0.695,0.006,1.192,0.573,1.193,1.333c0.003,1.376,0.001,1.695,0.001,3.07
	C15.801,5.015,15.801,5.015,15.801,5.015z"/>
<path d="M21.73,24.07H3.27c-0.831,0-1.504-0.674-1.504-1.504s0.674-1.504,1.504-1.504H21.73c0.831,0,1.504,0.674,1.504,1.504
	S22.56,24.07,21.73,24.07z"/>
</svg>
