<?xml version="1.0" encoding="utf-8"?>
<!-- Generator: Adobe Illustrator 25.4.1, SVG Export Plug-In . SVG Version: 6.00 Build 0)  -->
<svg version="1.1" id="Layer_1" xmlns="http://www.w3.org/2000/svg" xmlns:xlink="http://www.w3.org/1999/xlink" x="0px" y="0px"
	 viewBox="0 0 24 24" style="enable-background:new 0 0 24 24;" xml:space="preserve">
<g>
	<path d="M5.578,18.856H4.976c-0.347,0-0.628-0.281-0.628-0.628v-4.673c0-0.347,0.281-0.628,0.628-0.628h0.601
		c0.347,0,0.628,0.281,0.628,0.628v4.673C6.206,18.575,5.924,18.856,5.578,18.856z"/>
</g>
<g>
	<path d="M18.426,21.392L18.426,21.392c0,0.336-0.272,0.608-0.608,0.608H1.859c-0.336,0-0.608-0.272-0.608-0.608l0,0
		c0-0.336,0.272-0.608,0.608-0.608h15.959C18.154,20.785,18.426,21.057,18.426,21.392z"/>
</g>
<g>
	<path d="M1.811,4.826L1.811,4.826c0.336,0,0.608,0.272,0.608,0.608v15.959C2.419,21.728,2.147,22,1.811,22h0
		c-0.336,0-0.608-0.272-0.608-0.608V5.433C1.204,5.098,1.476,4.826,1.811,4.826z"/>
</g>
<g>
	<path d="M10.754,16.161v2.193c0,0.288-0.237,0.518-0.518,0.518H9.409c-0.28,0-0.518-0.23-0.518-0.518v-2.826
		C9.496,15.83,10.114,16.046,10.754,16.161z"/>
</g>
<g>
	<path d="M15.299,15.736v2.618c0,0.288-0.237,0.518-0.518,0.518h-0.827c-0.28,0-0.518-0.23-0.518-0.518v-2.158
		c0.05-0.007,0.108-0.022,0.158-0.029c0.165-0.029,0.324-0.065,0.489-0.108c0.309-0.086,0.618-0.187,0.928-0.309
		c0.058-0.022,0.108-0.043,0.165-0.072C15.213,15.7,15.256,15.715,15.299,15.736z"/>
</g>
<path d="M22.52,16.729c-0.014-0.007-0.029-0.022-0.036-0.036c-1.338-1.151-2.675-2.301-4.013-3.445
	c-0.05-0.043-0.058-0.072-0.022-0.122c0.029-0.05,0.036-0.101,0.058-0.144c0-0.007,0-0.007,0-0.014
	c0.137-0.36,0.079-0.762-0.18-1.064c-0.036-0.043-0.036-0.072-0.014-0.122c0.065-0.129,0.122-0.266,0.18-0.403
	c0.108-0.273,0.201-0.554,0.28-0.841c0.036-0.144,0.065-0.288,0.093-0.439c0.129-0.705,0.158-1.402,0.079-2.078
	c0-0.022-0.007-0.043-0.007-0.065c-0.093-0.762-0.324-1.503-0.69-2.222c-0.396-0.777-0.892-1.431-1.496-1.978
	c-0.151-0.137-0.309-0.266-0.475-0.388C15.788,3,15.242,2.698,14.638,2.46c-0.403-0.151-0.805-0.273-1.208-0.352
	c-0.194-0.036-0.381-0.065-0.575-0.079C12.516,2,12.164,1.993,11.811,2.007c-0.129,0.007-0.259,0.014-0.388,0.036
	c-0.086,0.007-0.173,0.022-0.259,0.029c-0.115,0.022-0.23,0.043-0.345,0.065c-0.611,0.129-1.18,0.324-1.705,0.583
	c-0.022,0.014-0.05,0.022-0.072,0.036C8.927,2.813,8.82,2.877,8.712,2.942C8.633,2.985,8.553,3.036,8.474,3.093
	c-0.014,0-0.022,0.007-0.029,0.014C8.309,3.201,8.172,3.295,8.043,3.395c-0.467,0.352-0.892,0.784-1.28,1.28
	C6.662,4.805,6.568,4.941,6.475,5.078C6.468,5.085,6.468,5.092,6.461,5.1C6.389,5.2,6.331,5.301,6.274,5.409
	C6.195,5.524,6.13,5.646,6.072,5.768C5.821,6.286,5.626,6.847,5.504,7.451c-0.022,0.115-0.043,0.23-0.065,0.345
	C5.432,7.883,5.418,7.969,5.411,8.055C5.389,8.185,5.382,8.314,5.375,8.444C5.36,8.789,5.36,9.12,5.389,9.451
	c0.007,0.122,0.022,0.252,0.043,0.374c0.079,0.482,0.209,0.971,0.396,1.446c0.237,0.604,0.539,1.151,0.906,1.64
	c0.093,0.122,0.187,0.245,0.288,0.36c0.036,0.043,0.072,0.086,0.115,0.129c0.489,0.539,1.072,0.992,1.755,1.359
	c0.072,0.05,0.137,0.086,0.209,0.122c0.539,0.273,1.093,0.475,1.654,0.597c0.187,0.036,0.374,0.072,0.568,0.093
	c0.022,0.014,0.043,0.014,0.065,0.007c0.669,0.079,1.352,0.05,2.05-0.072c0.007-0.007,0.022-0.007,0.029-0.007
	c0.151-0.029,0.295-0.058,0.439-0.093c0.288-0.079,0.568-0.173,0.841-0.28c0.137-0.058,0.273-0.122,0.41-0.187
	c0.058-0.029,0.093-0.014,0.144,0.014c0,0.007,0.007,0.007,0.007,0.007c0.101,0.072,0.209,0.137,0.324,0.18
	c0.28,0.101,0.539,0.086,0.798-0.029c0.022-0.007,0.043-0.014,0.065-0.029c0.05-0.029,0.079-0.029,0.122,0.022
	c1.143,1.338,2.294,2.675,3.445,4.013c0.014,0.014,0.029,0.022,0.036,0.036c0.187,0.288,0.46,0.309,0.755,0.252
	c0.252-0.058,0.489-0.158,0.698-0.295c0.05-0.029,0.101-0.065,0.144-0.101c0.086-0.058,0.165-0.122,0.245-0.194
	c0.065-0.058,0.129-0.115,0.187-0.18c0.058-0.065,0.115-0.129,0.165-0.194c0.065-0.079,0.122-0.158,0.173-0.244
	c0.036-0.058,0.072-0.122,0.101-0.18c0-0.007,0-0.007,0-0.007c0.093-0.165,0.165-0.338,0.209-0.525
	C22.829,17.189,22.8,16.916,22.52,16.729z M15.299,13.795c-0.022,0.014-0.043,0.029-0.065,0.043
	c-0.086,0.058-0.165,0.101-0.252,0.144c-0.417,0.237-0.87,0.41-1.345,0.532c-0.065,0.014-0.137,0.036-0.201,0.043
	c-0.41,0.093-0.834,0.144-1.266,0.144c-0.489,0-0.964-0.058-1.417-0.173c-0.676-0.165-1.302-0.446-1.863-0.827
	c-1.568-1.05-2.596-2.841-2.596-4.876c0-0.719,0.122-1.402,0.36-2.042C6.95,5.977,7.424,5.251,8.021,4.647
	C8.215,4.452,8.431,4.265,8.654,4.1l0.007-0.007c0.144-0.108,0.302-0.216,0.46-0.309c0.007,0,0.007-0.007,0.007-0.007
	c0.237-0.144,0.489-0.273,0.755-0.381l0.007-0.007c0.705-0.295,1.482-0.46,2.301-0.46c0.302,0,0.604,0.022,0.892,0.072
	c0.489,0.072,0.949,0.209,1.388,0.396c0,0.007,0,0.007,0.007,0c2.114,0.892,3.596,2.985,3.589,5.415
	c0,0.813-0.165,1.582-0.467,2.287c-0.007,0.007-0.007,0.014-0.007,0.014c-0.108,0.266-0.237,0.518-0.396,0.762
	c-0.144,0.237-0.309,0.475-0.489,0.69c-0.115,0.137-0.237,0.273-0.367,0.403C16.033,13.277,15.681,13.557,15.299,13.795z"/>
<g>
	<path d="M15.299,10.307v2.661c-0.137,0.108-0.288,0.209-0.439,0.302c-0.065,0.036-0.122,0.072-0.216,0.115
		c-0.345,0.194-0.741,0.352-1.179,0.467c-0.007,0-0.022,0.007-0.029,0.007v-3.553c0-0.288,0.237-0.518,0.518-0.518h0.827
		C15.062,9.789,15.299,10.019,15.299,10.307z"/>
</g>
<g>
	<path d="M10.754,8.027v5.797c-0.676-0.187-1.309-0.518-1.863-0.971V8.027c0-0.288,0.237-0.518,0.518-0.518h0.827
		C10.517,7.509,10.754,7.739,10.754,8.027z"/>
</g>
</svg>
