<?xml version="1.0" encoding="utf-8"?>
<!-- Generator: Adobe Illustrator 25.4.1, SVG Export Plug-In . SVG Version: 6.00 Build 0)  -->
<svg version="1.1" id="Layer_1" xmlns="http://www.w3.org/2000/svg" xmlns:xlink="http://www.w3.org/1999/xlink" x="0px" y="0px"
	 viewBox="0 0 25 23.003" style="enable-background:new 0 0 25 23.003;" xml:space="preserve">
<g>
	<path d="M5.012,19.4H4.323c-0.397,0-0.72-0.322-0.72-0.72v-5.355c0-0.397,0.322-0.72,0.72-0.72h0.689c0.397,0,0.72,0.322,0.72,0.72
		v5.355C5.732,19.078,5.41,19.4,5.012,19.4z"/>
</g>
<g>
	<path d="M19.737,22.307L19.737,22.307c0,0.385-0.312,0.696-0.696,0.696H0.751c-0.385,0-0.696-0.312-0.696-0.696l0,0
		c0-0.385,0.312-0.696,0.696-0.696h18.29C19.425,21.611,19.737,21.923,19.737,22.307z"/>
</g>
<g>
	<path d="M0.696,3.321L0.696,3.321c0.385,0,0.696,0.312,0.696,0.696v18.29c0,0.385-0.312,0.696-0.696,0.696h0
		C0.312,23.003,0,22.692,0,22.307l0-18.29C0,3.633,0.312,3.321,0.696,3.321z"/>
</g>
<g>
	<path d="M10.945,16.311v2.514c0,0.33-0.272,0.593-0.593,0.593H9.404c-0.321,0-0.593-0.264-0.593-0.593v-3.239
		C9.502,15.932,10.211,16.179,10.945,16.311z"/>
</g>
<g>
	<path d="M16.154,15.825v3c0,0.33-0.272,0.593-0.593,0.593h-0.948c-0.321,0-0.593-0.264-0.593-0.593v-2.473
		c0.058-0.008,0.124-0.025,0.181-0.033c0.19-0.033,0.371-0.074,0.56-0.124c0.354-0.099,0.709-0.214,1.063-0.354
		c0.066-0.025,0.124-0.049,0.19-0.082C16.055,15.784,16.104,15.8,16.154,15.825z"/>
</g>
<path d="M24.429,16.962c-0.016-0.008-0.033-0.025-0.041-0.041c-1.533-1.319-3.066-2.637-4.599-3.948
	c-0.058-0.049-0.066-0.082-0.025-0.14c0.033-0.058,0.041-0.115,0.066-0.165c0-0.008,0-0.008,0-0.017
	c0.157-0.412,0.091-0.874-0.206-1.22c-0.041-0.049-0.041-0.082-0.016-0.14c0.074-0.148,0.14-0.305,0.206-0.462
	c0.124-0.313,0.231-0.635,0.321-0.964c0.041-0.165,0.074-0.33,0.107-0.503c0.148-0.808,0.181-1.607,0.091-2.382
	c0-0.025-0.008-0.049-0.008-0.074c-0.107-0.874-0.371-1.723-0.791-2.547c-0.453-0.89-1.022-1.64-1.714-2.267
	c-0.173-0.157-0.354-0.305-0.544-0.445c-0.56-0.42-1.187-0.766-1.879-1.038c-0.461-0.173-0.923-0.313-1.385-0.404
	c-0.223-0.041-0.437-0.074-0.659-0.091c-0.387-0.033-0.791-0.041-1.195-0.025c-0.148,0.008-0.297,0.017-0.445,0.041
	c-0.099,0.008-0.198,0.025-0.297,0.033c-0.132,0.025-0.264,0.05-0.396,0.074C10.318,0.388,9.667,0.61,9.066,0.907
	C9.041,0.924,9.008,0.932,8.983,0.948c-0.132,0.066-0.255,0.14-0.379,0.214C8.513,1.212,8.423,1.27,8.332,1.336
	c-0.017,0-0.025,0.008-0.033,0.016c-0.157,0.107-0.313,0.214-0.462,0.33C7.302,2.086,6.816,2.58,6.371,3.149
	C6.255,3.297,6.148,3.454,6.041,3.61C6.033,3.619,6.033,3.627,6.024,3.635C5.942,3.751,5.876,3.866,5.81,3.99
	C5.719,4.121,5.645,4.262,5.579,4.402C5.291,4.995,5.068,5.638,4.928,6.33C4.903,6.462,4.879,6.594,4.854,6.726
	C4.846,6.825,4.829,6.924,4.821,7.023C4.796,7.171,4.788,7.319,4.78,7.468C4.763,7.863,4.763,8.242,4.796,8.622
	C4.805,8.762,4.821,8.91,4.846,9.05c0.091,0.552,0.239,1.113,0.453,1.657c0.272,0.692,0.618,1.319,1.038,1.879
	c0.107,0.14,0.214,0.28,0.33,0.412c0.041,0.049,0.082,0.099,0.132,0.148c0.56,0.618,1.228,1.137,2.011,1.558
	c0.082,0.058,0.157,0.099,0.239,0.14c0.618,0.313,1.253,0.544,1.896,0.684c0.214,0.041,0.429,0.082,0.651,0.107
	c0.025,0.017,0.05,0.017,0.074,0.008c0.767,0.091,1.549,0.058,2.349-0.082c0.008-0.008,0.025-0.008,0.033-0.008
	c0.173-0.033,0.338-0.066,0.503-0.107c0.33-0.091,0.651-0.198,0.964-0.321c0.157-0.066,0.313-0.14,0.47-0.214
	c0.066-0.033,0.107-0.016,0.165,0.016c0,0.008,0.008,0.008,0.008,0.008c0.115,0.082,0.239,0.157,0.371,0.206
	c0.321,0.115,0.618,0.099,0.915-0.033c0.025-0.008,0.049-0.016,0.074-0.033c0.058-0.033,0.091-0.033,0.14,0.025
	c1.31,1.533,2.629,3.066,3.948,4.599c0.017,0.017,0.033,0.025,0.041,0.041c0.214,0.33,0.527,0.354,0.865,0.288
	c0.288-0.066,0.56-0.181,0.799-0.338c0.058-0.033,0.115-0.074,0.165-0.115c0.099-0.066,0.19-0.14,0.28-0.223
	c0.074-0.066,0.148-0.132,0.214-0.206c0.066-0.074,0.132-0.148,0.19-0.223c0.074-0.091,0.14-0.181,0.198-0.28
	c0.041-0.066,0.082-0.14,0.115-0.206c0-0.008,0-0.008,0-0.008c0.107-0.19,0.19-0.387,0.239-0.602
	C24.783,17.49,24.75,17.177,24.429,16.962z M16.154,13.6c-0.025,0.016-0.049,0.033-0.074,0.049c-0.099,0.066-0.19,0.115-0.288,0.165
	c-0.478,0.272-0.997,0.47-1.541,0.61c-0.074,0.016-0.157,0.041-0.231,0.049c-0.47,0.107-0.956,0.165-1.451,0.165
	c-0.56,0-1.104-0.066-1.624-0.198c-0.775-0.19-1.492-0.511-2.135-0.948c-1.797-1.203-2.975-3.256-2.975-5.588
	c0-0.824,0.14-1.607,0.412-2.341c0.338-0.923,0.882-1.756,1.566-2.448c0.223-0.222,0.47-0.437,0.725-0.626l0.008-0.008
	c0.165-0.124,0.346-0.247,0.527-0.354c0.008,0,0.008-0.008,0.008-0.008c0.272-0.165,0.56-0.313,0.865-0.437l0.008-0.008
	c0.808-0.338,1.698-0.527,2.637-0.527c0.346,0,0.692,0.025,1.022,0.082c0.56,0.082,1.088,0.239,1.591,0.453c0,0.008,0,0.008,0.008,0
	c2.423,1.022,4.121,3.42,4.113,6.206c0,0.931-0.19,1.813-0.536,2.621c-0.008,0.008-0.008,0.016-0.008,0.016
	c-0.124,0.305-0.272,0.593-0.453,0.874c-0.165,0.272-0.354,0.544-0.56,0.791c-0.132,0.157-0.272,0.313-0.42,0.462
	C16.994,13.006,16.591,13.328,16.154,13.6z"/>
<g>
	<path d="M16.154,9.602v3.05c-0.157,0.124-0.33,0.239-0.503,0.346c-0.074,0.041-0.14,0.082-0.247,0.132
		c-0.396,0.222-0.849,0.404-1.352,0.536c-0.008,0-0.025,0.008-0.033,0.008V9.602c0-0.33,0.272-0.593,0.593-0.593h0.948
		C15.882,9.009,16.154,9.273,16.154,9.602z"/>
</g>
<g>
	<path d="M10.945,6.99v6.643c-0.775-0.214-1.5-0.593-2.135-1.113V6.99c0-0.33,0.272-0.593,0.593-0.593h0.948
		C10.673,6.396,10.945,6.66,10.945,6.99z"/>
</g>
</svg>
