<?xml version="1.0" encoding="iso-8859-1"?>
<!-- Generator: Adobe Illustrator 19.0.0, SVG Export Plug-In . SVG Version: 6.00 Build 0)  -->
<svg version="1.1" id="Capa_1" xmlns="http://www.w3.org/2000/svg" xmlns:xlink="http://www.w3.org/1999/xlink" x="0px" y="0px"
	 viewBox="0 0 505.101 505.101" style="enable-background:new 0 0 505.101 505.101;" xml:space="preserve">
<g>
	<g>
		<path d="M452.676,423.627l-75.047-75.047c7.014-16.131,11.222-34.367,11.222-52.603c0-72.241-58.915-131.858-131.858-131.858
			c-7.014,0-13.326,0.701-20.34,1.403V28.055c7.014-0.701,12.625-6.312,12.625-14.027S242.966,0,235.251,0H52.895
			C45.18,0,38.867,6.312,38.867,14.027c0,7.014,5.611,13.326,12.625,14.027v285.458c0,51.2,41.381,92.581,92.581,92.581
			c11.222,0,21.742-2.104,32.263-6.312c22.444,16.833,49.797,27.353,79.956,27.353c18.937,0,36.471-4.208,52.603-11.222
			l75.047,75.047c30.159,26.652,58.214,9.118,67.331,0C461.092,481.841,478.626,453.085,452.676,423.627z M79.547,28.055h129.052
			v145.184c-6.312,2.104-11.923,4.91-17.534,8.416c-0.701,0-111.518,0-111.518,0V28.055z M144.073,377.337
			c-35.77,0-64.526-28.756-64.526-64.526V209.71h77.852c-20.34,23.145-32.263,53.304-32.263,86.269
			c0,30.86,10.521,58.915,28.055,81.359C150.385,377.337,147.58,377.337,144.073,377.337z M256.993,399.079
			c-42.784,0-79.255-25.951-95.386-62.422h23.145c7.715,0,14.027-6.312,14.027-14.027c0-7.715-6.312-14.027-14.027-14.027h-30.159
			c-2.104-11.923-0.701-21.742,0-25.951h57.512c7.715,0,14.027-6.312,14.027-14.027c0-7.715-6.312-14.027-14.027-14.027h-49.797
			c16.132-36.471,52.603-62.422,95.386-62.422c56.811,0,103.803,46.29,103.803,103.803
			C360.796,352.789,313.804,399.079,256.993,399.079z M432.336,471.321c-7.715,7.715-20.34,7.715-28.055,0l-69.436-69.436
			c10.521-7.715,20.34-17.534,28.055-28.055l69.436,69.436C443.558,455.189,436.544,467.112,432.336,471.321z"/>
	</g>
</g>
<g>
</g>
<g>
</g>
<g>
</g>
<g>
</g>
<g>
</g>
<g>
</g>
<g>
</g>
<g>
</g>
<g>
</g>
<g>
</g>
<g>
</g>
<g>
</g>
<g>
</g>
<g>
</g>
<g>
</g>
</svg>
