<?xml version="1.0" encoding="utf-8"?>
<!-- Generator: Adobe Illustrator 25.4.1, SVG Export Plug-In . SVG Version: 6.00 Build 0)  -->
<svg version="1.1" id="Layer_1" xmlns="http://www.w3.org/2000/svg" xmlns:xlink="http://www.w3.org/1999/xlink" x="0px" y="0px"
	 viewBox="0 0 24 24" style="enable-background:new 0 0 24 24;" xml:space="preserve">
<g>
	<path d="M19.767,4H1.346C0.964,4,0.645,4.31,0.645,4.701v12.065c0,0.392,0.319,0.701,0.701,0.701h15.316
		c-0.319-0.319-0.637-0.637-0.956-0.947h-4.68v-4.007h5.136v-0.947h-5.136V7.551h8.496v1.047c0.364,0,0.692,0.137,0.947,0.373V4.701
		C20.468,4.31,20.15,4,19.767,4z M10.088,16.52H1.592v-4.007h8.496V16.52z M10.088,11.567H1.592V7.551h8.496V11.567z"/>
	<path d="M20.042,11.508c0,0.617,0,1.235,0,1.852c0,0.101,0,0.101,0.104,0.101c0.622,0,1.244-0.001,1.866,0
		c0.26,0,0.443,0.146,0.483,0.391c0.026,0.158-0.027,0.293-0.14,0.407c-0.265,0.264-0.53,0.53-0.794,0.795
		c-0.878,0.878-1.756,1.756-2.634,2.635c-0.139,0.139-0.299,0.208-0.49,0.14c-0.077-0.027-0.151-0.08-0.209-0.138
		c-0.859-0.853-1.714-1.71-2.571-2.565c-0.289-0.288-0.578-0.576-0.865-0.866c-0.208-0.21-0.201-0.499,0.014-0.691
		c0.098-0.088,0.218-0.107,0.343-0.107c0.615-0.001,1.231,0,1.846,0c0.109,0,0.109,0,0.109-0.11c0-1.222,0.001-1.972,0.001-3.194
		c0-0.178,0.039-0.34,0.177-0.466c0.099-0.091,0.215-0.146,0.35-0.146c0.627-0.002,1.253-0.004,1.88,0.001
		c0.31,0.003,0.531,0.255,0.532,0.594C20.044,10.753,20.043,10.895,20.042,11.508C20.043,11.508,20.043,11.508,20.042,11.508z"/>
	<path d="M22.685,20h-8.226c-0.37,0-0.67-0.3-0.67-0.67s0.3-0.67,0.67-0.67h8.226c0.37,0,0.67,0.3,0.67,0.67S23.055,20,22.685,20z"
		/>
</g>
</svg>
