<?xml version="1.0" encoding="utf-8"?>
<!-- Generator: Adobe Illustrator 25.4.1, SVG Export Plug-In . SVG Version: 6.00 Build 0)  -->
<svg version="1.1" id="Layer_1" xmlns="http://www.w3.org/2000/svg" xmlns:xlink="http://www.w3.org/1999/xlink" x="0px" y="0px"
	 viewBox="0 0 28.2 20.55" style="enable-background:new 0 0 28.2 20.55;" xml:space="preserve">
<path d="M22.63,1.436H2.4c-0.42,0-0.77,0.34-0.77,0.77v13.25c0,0.43,0.35,0.77,0.77,0.77h16.82c-0.35-0.35-0.7-0.7-1.05-1.04h-5.14
	v-4.4h5.64v-1.04h-5.64v-4.41h9.33v1.15c0.4,0,0.76,0.15,1.04,0.41v-4.69C23.4,1.776,23.05,1.436,22.63,1.436z M12,15.186H2.67v-4.4
	H12V15.186z M12,9.746H2.67v-4.41H12V9.746z"/>
<path d="M22.932,9.681c0,0.678,0,1.356,0,2.034c0,0.111,0,0.111,0.114,0.111c0.683,0,1.366-0.001,2.049,0
	c0.286,0,0.487,0.16,0.531,0.429c0.028,0.173-0.029,0.322-0.154,0.447c-0.291,0.29-0.582,0.582-0.872,0.873
	c-0.964,0.964-1.929,1.928-2.892,2.893c-0.152,0.152-0.328,0.229-0.538,0.154c-0.084-0.03-0.166-0.087-0.23-0.151
	c-0.943-0.937-1.883-1.878-2.823-2.817c-0.317-0.317-0.635-0.633-0.95-0.951c-0.228-0.23-0.221-0.548,0.015-0.759
	c0.108-0.096,0.239-0.118,0.376-0.118c0.676-0.001,1.352,0,2.027,0c0.12,0,0.12,0,0.12-0.12c0-1.342,0.001-2.166,0.001-3.508
	c0-0.196,0.043-0.374,0.194-0.512c0.109-0.1,0.236-0.16,0.384-0.161c0.688-0.002,1.376-0.005,2.064,0.001
	c0.34,0.003,0.583,0.28,0.584,0.652C22.934,8.852,22.932,9.008,22.932,9.681C22.932,9.681,22.932,9.681,22.932,9.681z"/>
<path d="M25.834,19.007h-9.034c-0.407,0-0.736-0.33-0.736-0.736s0.33-0.736,0.736-0.736h9.034c0.407,0,0.736,0.33,0.736,0.736
	S26.24,19.007,25.834,19.007z"/>
</svg>
