<?xml version="1.0" encoding="utf-8"?>
<!-- Generator: Adobe Illustrator 25.4.1, SVG Export Plug-In . SVG Version: 6.00 Build 0)  -->
<svg version="1.1" id="Layer_1" xmlns="http://www.w3.org/2000/svg" xmlns:xlink="http://www.w3.org/1999/xlink" x="0px" y="0px"
	 viewBox="0 0 16 16" style="enable-background:new 0 0 16 16;" xml:space="preserve">
<path d="M13.472,2.364H0.494C0.225,2.364,0,2.582,0,2.858v8.5c0,0.276,0.225,0.494,0.494,0.494h10.791
	c-0.225-0.225-0.449-0.449-0.674-0.667H7.314V8.362h3.618V7.695H7.314V4.866h5.986v0.738c0.257,0,0.488,0.096,0.667,0.263V2.858
	C13.966,2.582,13.742,2.364,13.472,2.364z M6.653,11.185H0.667V8.362h5.986V11.185z M6.653,7.695H0.667V4.866h5.986V7.695z"/>
<path d="M13.666,7.653c0,0.435,0,0.87,0,1.305c0,0.071,0,0.071,0.073,0.071c0.438,0,0.877,0,1.315,0
	c0.183,0,0.312,0.103,0.341,0.275c0.018,0.111-0.019,0.207-0.099,0.286c-0.187,0.186-0.373,0.373-0.56,0.56
	c-0.619,0.619-1.237,1.237-1.856,1.856c-0.098,0.098-0.21,0.147-0.345,0.099c-0.054-0.019-0.106-0.056-0.148-0.097
	c-0.605-0.601-1.208-1.205-1.811-1.807c-0.203-0.203-0.407-0.406-0.61-0.61c-0.147-0.148-0.141-0.351,0.01-0.487
	c0.069-0.062,0.153-0.076,0.241-0.076c0.434,0,0.867,0,1.301,0c0.077,0,0.077,0,0.077-0.077c0-0.861,0-1.39,0-2.25
	c0-0.125,0.028-0.24,0.124-0.329c0.07-0.064,0.151-0.103,0.246-0.103c0.441-0.001,0.883-0.003,1.324,0.001
	c0.218,0.002,0.374,0.18,0.375,0.419C13.667,7.121,13.667,7.222,13.666,7.653C13.666,7.653,13.666,7.653,13.666,7.653z"/>
<path d="M15.528,13.636H9.732c-0.261,0-0.472-0.212-0.472-0.472c0-0.261,0.212-0.472,0.472-0.472h5.796
	c0.261,0,0.472,0.212,0.472,0.472C16,13.425,15.788,13.636,15.528,13.636z"/>
</svg>
